<svg xmlns="http://www.w3.org/2000/svg" viewBox="0 0 250.28 142.07"><defs><style>.cls-1{fill:#fff;}.cls-2{fill:#4177bc;}</style></defs><g id="Calque_4" data-name="Calque 4"><polygon class="cls-1" points="159.59 55.45 159.59 113.33 202.48 113.33 202.48 102.33 170.44 102.64 170.44 89.57 202.48 89.57 202.48 78.89 169.64 78.89 169.64 66.45 202.48 66.45 202.48 55.45 159.59 55.45"/><path class="cls-1" d="M164.45,120.38a16.21,16.21,0,0,0-8.12-6v11H123.48v12.44h32.85v10.69H124.27v13.07l32.06-.32v11H113.44s0-1.58,0-4.87c7.85-7.06,5.74-15.91,1.79-24.08,4.61-6.73,7.54-19.21-6.09-27.82-5.78-10-2.12-14.5,6.33-14.5,22.88,0,38,6.55,48.95,16.06Z" transform="translate(-4.86 -58.97)"/><path class="cls-1" d="M66.8,125.78l-1.12,11.84h37.39s9-6.38,0-11.84Z" transform="translate(-4.86 -58.97)"/><path class="cls-1" d="M66.8,161.61l-1.12-11.84h37.39s9,6.38,0,11.84Z" transform="translate(-4.86 -58.97)"/><path class="cls-1" d="M70.66,172.3h31.81s-3.71,15.46-15.9,15.46S70.66,172.3,70.66,172.3Z" transform="translate(-4.86 -58.97)"/><polygon class="cls-1" points="78.6 132.38 84.1 132.38 81.51 142.06 78.6 132.38"/><path class="cls-1" d="M13.86,137.62s-27.5-15.39,13.63-30.46c16-5.26,32.29-8.61,37.07-3.82S58.35,130.76,44,139.65,13.86,137.62,13.86,137.62Z" transform="translate(-4.86 -58.97)"/><path class="cls-1" d="M86.37,114.1H70s2.87-10.37,7.58-12.36c-7.66-5.74-8.21-19,.4-24.31-2.71-2.63-3.75-10.05-11.08-15.71-.91-.8.39-4.78,3.34-1.43,4.45,5,8.37,9.08,9.73,15.22.26,1.18,4-1.43,6.38-.71h.08c2.39-.72,6.11,1.89,6.37.71,1.36-6.14,5.29-10.18,9.73-15.22,2.95-3.35,4.25.63,3.35,1.43-7.34,5.66-8.37,13.08-11.08,15.71,8.61,5.34,8,18.57.4,24.31,4.7,2,7.57,12.36,7.57,12.36H86.37" transform="translate(-4.86 -58.97)"/><path class="cls-2" d="M208,179.56c-1.23.15-1.61.46-2,2l-2.87,10.56a6.6,6.6,0,0,0-.24,1.37c0,.77.29,1,1.71,1v.6h-7.5v-.6c1.67-.1,2-.51,2.44-1.91l3-11-9,13.81h-.67l-1.62-13.48-2.43,8.9a9.73,9.73,0,0,0-.48,2.22c0,1.08.38,1.32,1.92,1.47v.6h-5v-.6c1.3-.29,1.61-.8,2.48-3.79l2.58-8.89a5.9,5.9,0,0,0,.27-1.4c0-.68-.17-.85-1.72-.85V179h5.28l1.31,11.57L202.89,179H208Z" transform="translate(-4.86 -58.97)"/><path class="cls-2" d="M214.17,184a3.46,3.46,0,0,1,3.78,3.64,8.82,8.82,0,0,1-2.53,6,5.81,5.81,0,0,1-4.22,1.8c-2.26,0-3.95-1.2-3.95-3.56a8.51,8.51,0,0,1,2.41-6,6.23,6.23,0,0,1,4.41-1.86Zm-.22.7a1.92,1.92,0,0,0-1.44.75c-1.45,1.61-2.39,5.3-2.39,7.76,0,1.06.46,1.55,1.18,1.55a2,2,0,0,0,1.71-1.19,16.88,16.88,0,0,0,2.08-7.4C215.09,185.21,214.65,184.65,214,184.65Z" transform="translate(-4.86 -58.97)"/><path class="cls-2" d="M219.37,184.6a28.6,28.6,0,0,0,3.76-.65c.51,1.62.75,3.52.75,8.06,2.39-2.73,3-3.72,3-4.56,0-.27-.12-.46-.48-.87a1.85,1.85,0,0,1-.6-1.28,1.39,1.39,0,0,1,1.37-1.35,1.51,1.51,0,0,1,1.47,1.62,7,7,0,0,1-1.45,3.71,35,35,0,0,1-5.54,6.12h-.63c.12-2.19.12-4.17.12-4.26a16,16,0,0,0-.6-5.43c-.17-.31-.46-.46-1.21-.46Z" transform="translate(-4.86 -58.97)"/><path class="cls-2" d="M235.45,192c-1.59,2.6-2.6,3.3-4,3.3-1,0-1.64-.48-1.64-1.52a8.18,8.18,0,0,1,.36-1.83l1.33-4.9a5.27,5.27,0,0,0,.19-1.08c0-.46-.38-.7-1.11-.7h-.33v-.65a37,37,0,0,0,4.89-.68L232.9,192a5.46,5.46,0,0,0-.22,1.22.34.34,0,0,0,.36.39c.36,0,.89-.55,1.54-1.47l.34-.48Zm-1.06-10.18a1.59,1.59,0,0,1-1.59-1.66,1.63,1.63,0,0,1,1.57-1.57,1.66,1.66,0,0,1,1.66,1.64A1.6,1.6,0,0,1,234.39,181.83Z" transform="translate(-4.86 -58.97)"/><path class="cls-2" d="M244.76,192.05c-1.36,2.41-2.85,3.35-4.71,3.35a3.21,3.21,0,0,1-3.52-3.54c0-4,3.45-7.91,6.95-7.91,1.56,0,2.53.87,2.53,2.1a4.17,4.17,0,0,1-1.67,2.94c-1,.87-2.19,1.3-4.53,1.71a6.14,6.14,0,0,0-.14,1.19c0,1.3.53,2,1.54,2s1.74-.55,2.85-2.22Zm-1.72-7.3c-1.15,0-2.19,1.83-3.06,5.18a4.61,4.61,0,0,0,3.81-4.24C243.79,185.13,243.62,184.75,243,184.75Z" transform="translate(-4.86 -58.97)"/><path class="cls-2" d="M254.59,187.69l-.65-.05c-.39-2-1-2.89-2.13-2.89a1.19,1.19,0,0,0-1.27,1.28,4.39,4.39,0,0,0,1.37,2.38c1.45,1.69,1.93,2.75,1.93,3.91,0,1.81-1.59,3.08-3.57,3.08a4.09,4.09,0,0,1-1.54-.28,2.13,2.13,0,0,0-.72-.2.71.71,0,0,0-.7.48h-.65l.53-4,.65.07c.26,2.13,1,3.21,2.24,3.21,1,0,1.45-.53,1.45-1.3a4,4,0,0,0-1.35-2.51c-1.64-1.85-1.93-2.58-1.93-3.88a2.9,2.9,0,0,1,3.23-3,3.44,3.44,0,0,1,1.4.29,2,2,0,0,0,.89.24c.36,0,.46-.09.67-.5h.7Z" transform="translate(-4.86 -58.97)"/></g></svg>